<?xml version="1.0" encoding="utf-8"?>
<!-- Generator: Adobe Illustrator 21.0.2, SVG Export Plug-In . SVG Version: 6.00 Build 0)  -->
<svg version="1.1" id="Calque_1" xmlns="http://www.w3.org/2000/svg" xmlns:xlink="http://www.w3.org/1999/xlink" x="0px" y="0px"
	 viewBox="0 0 737 141.7" style="enable-background:new 0 0 737 141.7;" xml:space="preserve">
<style type="text/css">
	.st0{fill:#0069B4;}
	.st1{clip-path:url(#SVGID_2_);fill:none;stroke:#B2B2B2;stroke-width:7.8;}
	.st2{clip-path:url(#SVGID_4_);fill:#AA0469;}
</style>
<g>
	<path class="st0" d="M175.9,50.9l-0.3,7.1h-17.5v12.4h15.1v7h-15.1v12.9h18.1v7.1h-26.6V50.9H175.9z"/>
	<path class="st0" d="M194.9,63.7l7.4,26.2l7.5-26.2l8.6,0.3l-12,36.4c-2.9,8.6-7,12.2-16.8,12.7l-1.4-6.5c4.7-0.6,7.8-1.7,9.1-6.2
		l0.6-1.9L186.3,64L194.9,63.7z"/>
	<path class="st0" d="M236.5,84.6c0.7,4.9,4.1,6.5,8.2,6.5c3.4,0,5.9-1.9,7.3-5l6.1,2.8c-2.3,5-6.5,9-13.6,9
		c-9.7,0-16.6-6.1-16.6-17.3c0-10.4,6.5-17.2,16.1-17.2c9.7,0,15.3,6.7,15.3,17.5L236.5,84.6z M250.5,76.4c-0.4-4.3-2.9-6.5-6.7-6.5
		c-4.7,0-7.5,3.3-7.5,8.6L250.5,76.4z"/>
	<path class="st0" d="M276.5,86.9c1.1,2.9,3.7,4.2,7,4.2c3.1,0,4.7-1.1,4.7-3.3c0-5.3-17.7-2.7-17.7-14.3c0-6.1,5-10.1,13-10.1
		c6.1,0,11,2.4,12.9,7.3l-6.4,3.3c-0.9-2.4-3.2-3.7-6.1-3.7s-4.7,0.9-4.7,3.1c0,5.5,17.7,2.1,17.7,13.8c0,7.3-6.1,10.8-13.2,10.8
		c-8,0-12.1-3.7-13.6-8.1L276.5,86.9z"/>
	<path class="st0" d="M325.3,74.2c0-15.7,8.6-23.8,20.8-23.8s20.8,8,20.8,23.8C366.8,90,358.2,98,346,98S325.3,90,325.3,74.2z
		 M358.1,74.2c0-11.9-5.3-16.5-12.1-16.5S334,62.3,334,74.2s5.3,16.7,12.1,16.7S358.1,86,358.1,74.2z"/>
	<path class="st0" d="M397.9,57.1c-1.3-0.7-2.6-1.1-4.1-1.1c-2.2,0-3.3,1.4-3.3,4.2V64h8l-0.3,6.7h-7.8v26.9h-8.4V70.6h-5V64h5v-3.5
		c0-7.9,4.3-11.6,10.5-11.6c3.7,0,6.1,0.9,8.2,2.2L397.9,57.1z"/>
	<path class="st0" d="M441.1,50.9l14.4,29.2c1.2,2.4,3.5,7.1,4.2,10.3h0.1c-0.3-3.7-0.3-7.3-0.3-10.3V50.9h8.4v46.6H455L440.1,67
		c-1.5-3-2.9-6.4-3.5-9h-0.2c0.2,2.7,0.3,5.8,0.3,9.3v30.2h-8.4V50.9H441.1z"/>
	<path class="st0" d="M491.3,84.6c0.7,4.9,4.1,6.5,8.2,6.5c3.4,0,5.9-1.9,7.3-5l6.1,2.8c-2.3,5-6.5,9-13.6,9
		c-9.7,0-16.6-6.1-16.6-17.3c0-10.4,6.5-17.2,16.1-17.2c9.7,0,15.3,6.7,15.3,17.5L491.3,84.6z M505.3,76.4c-0.4-4.3-2.9-6.5-6.7-6.5
		c-4.7,0-7.5,3.3-7.5,8.6L505.3,76.4z"/>
	<path class="st0" d="M537.1,55.4V64h8l-0.3,6.7h-7.8v16.1c0,3.3,1.6,4.4,3.9,4.4c1.1,0,2.4-0.2,3.8-0.6l1.2,6.2
		c-2.1,0.7-4.2,1.2-7.2,1.2c-6.7,0-10.1-3.4-10.1-11.1V70.6h-5V64h5v-7.5L537.1,55.4z"/>
	<path class="st0" d="M563.1,63.7l5.5,27.3l6-27h11.1l6,27l5.5-27.3l8.6,0.3l-8.5,33.5H586l-6-25.6l-6,25.6h-11.1L554.5,64
		L563.1,63.7z"/>
	<path class="st0" d="M647,80.6c0,9.7-5.7,17.4-15.9,17.4s-15.9-7.7-15.9-17.4c0-9.7,5.7-17.2,15.9-17.2S647,70.9,647,80.6z
		 M623.7,80.6c0,5.7,2.6,10.5,7.4,10.5c4.8,0,7.4-4.8,7.4-10.5c0-5.7-2.6-10.3-7.4-10.3C626.3,70.3,623.7,74.9,623.7,80.6z"/>
	<path class="st0" d="M668.5,63.7v5.6c2.2-3.8,6.2-6,11.6-5.9c0,0.2-0.9,8-0.9,8.3c-3.6-0.2-7.4,0.9-9.8,4.2v21.6H661V64L668.5,63.7
		z"/>
	<path class="st0" d="M701.1,49.2v30l12.4-15.4l8.8,0.3v0.4l-10.8,12.4l12.1,20.4v0.4l-9.3,0.3l-8.5-14.7l-4.6,5.5v8.9h-8.4v-48
		L701.1,49.2z"/>
</g>
<g>
	<defs>
		<rect id="SVGID_1_" width="737" height="141.7"/>
	</defs>
	<clipPath id="SVGID_2_">
		<use xlink:href="#SVGID_1_"  style="overflow:visible;"/>
	</clipPath>
	<circle class="st1" cx="60.3" cy="71" r="46.7"/>
</g>
<g>
	<defs>
		<rect id="SVGID_3_" x="28.2" y="38.3" width="62.5" height="62.5"/>
	</defs>
	<clipPath id="SVGID_4_">
		<use xlink:href="#SVGID_3_"  style="overflow:visible;"/>
	</clipPath>
	<path class="st2" d="M63.7,57.6c0-0.1-0.1-0.2-0.1-0.2c-2.2-4.9-7.3-7.9-12.7-7.3c-1.1,0.1-1.9,1.1-1.8,2.2c0,0.1,0,0.2,0.1,0.3
		l0.2,0.8c0.3,0.9,1.2,1.6,2.1,1.5c3.2-0.3,6.3,1.5,7.6,4.4c0.4,0.9,1.4,1.4,2.3,1.1l0.8-0.2C63.3,59.8,64,58.7,63.7,57.6
		C63.7,57.7,63.7,57.6,63.7,57.6 M67.7,58.2c1.4,5.4,0.1,11.3-4.1,15.5c-6.3,6.3-16.4,6.3-22.7,0c-6.3-6.3-6.3-16.4,0-22.7
		c6.3-6.3,16.4-6.3,22.7,0C65.6,53.1,67,55.6,67.7,58.2 M90.4,89.8c-0.2-0.5-0.4-1-0.8-1.3L73.9,72.8c4.3-8.9,2.7-20-4.7-27.4
		c-9.4-9.4-24.6-9.4-34,0c-9.4,9.4-9.4,24.6,0,34c7.4,7.4,18.4,9,27.4,4.7l15.7,15.7c0.6,0.6,1.4,0.9,2.3,0.9c0.8,0,1.7-0.3,2.3-0.9
		l6.8-6.8c0.6-0.6,0.9-1.4,0.9-2.3C90.6,90.4,90.5,90.1,90.4,89.8L90.4,89.8z"/>
</g>
</svg>
